<svg width="98" height="55" viewBox="0 0 98 55" fill="none" xmlns="http://www.w3.org/2000/svg">
<path d="M0 54.1832V43.8376H2.78172V45.6427H2.88948C3.07808 45.0006 3.39464 44.5157 3.83918 44.1879C4.28371 43.8556 4.7956 43.6895 5.37485 43.6895C5.51853 43.6895 5.67345 43.6984 5.83959 43.7164C6.00573 43.7344 6.15166 43.7591 6.27739 43.7905V46.3365C6.14268 46.2961 5.95634 46.2601 5.71835 46.2287C5.48037 46.1973 5.26259 46.1816 5.06502 46.1816C4.64293 46.1816 4.26575 46.2736 3.93347 46.4577C3.60568 46.6373 3.34525 46.8888 3.15216 47.2121C2.96357 47.5354 2.86928 47.9081 2.86928 48.3301V54.1832H0Z" fill="white"/>
<path d="M11.9941 54.3853C10.9299 54.3853 10.0138 54.1697 9.24601 53.7387C8.48267 53.3031 7.89444 52.6879 7.48134 51.8932C7.06824 51.0939 6.86168 50.1487 6.86168 49.0576C6.86168 47.9934 7.06824 47.0594 7.48134 46.2556C7.89444 45.4519 8.47593 44.8255 9.22581 44.3765C9.98017 43.9274 10.8648 43.7029 11.8796 43.7029C12.5621 43.7029 13.1974 43.8129 13.7857 44.033C14.3784 44.2485 14.8948 44.574 15.3348 45.0096C15.7793 45.4452 16.1251 45.993 16.3721 46.653C16.619 47.3086 16.7425 48.0764 16.7425 48.9565V49.7446H8.0067V47.9664H14.0416C14.0416 47.5533 13.9518 47.1874 13.7722 46.8686C13.5926 46.5498 13.3434 46.3005 13.0246 46.1209C12.7103 45.9368 12.3443 45.8448 11.9267 45.8448C11.4911 45.8448 11.105 45.9458 10.7682 46.1479C10.4359 46.3454 10.1755 46.6126 9.98691 46.9494C9.79832 47.2817 9.70177 47.6521 9.69728 48.0607V49.7513C9.69728 50.2632 9.79158 50.7055 9.98017 51.0782C10.1733 51.4509 10.4449 51.7383 10.7952 51.9403C11.1454 52.1424 11.5607 52.2434 12.0412 52.2434C12.36 52.2434 12.6519 52.1985 12.9168 52.1087C13.1817 52.0189 13.4085 51.8842 13.5971 51.7046C13.7857 51.525 13.9294 51.3049 14.0281 51.0445L16.6819 51.2196C16.5472 51.8572 16.271 52.414 15.8534 52.89C15.4403 53.3615 14.906 53.7297 14.2504 53.9946C13.5993 54.255 12.8472 54.3853 11.9941 54.3853Z" fill="white"/>
<path d="M24.1178 43.8376V45.993H17.8875V43.8376H24.1178ZM19.302 41.359H22.1712V51.0041C22.1712 51.269 22.2117 51.4756 22.2925 51.6238C22.3733 51.7674 22.4856 51.8685 22.6292 51.9268C22.7774 51.9852 22.9481 52.0144 23.1411 52.0144C23.2758 52.0144 23.4105 52.0032 23.5453 51.9807C23.68 51.9538 23.7832 51.9336 23.8551 51.9201L24.3064 54.0552C24.1627 54.1001 23.9606 54.1518 23.7002 54.2101C23.4397 54.273 23.1232 54.3112 22.7505 54.3246C22.059 54.3516 21.4528 54.2595 20.9319 54.0485C20.4155 53.8375 20.0137 53.5097 19.7263 53.0651C19.4389 52.6206 19.2975 52.0593 19.302 51.3813V41.359Z" fill="white"/>
<path d="M28.9369 54.3785C28.2769 54.3785 27.6886 54.264 27.1723 54.035C26.6559 53.8015 26.2473 53.458 25.9464 53.0045C25.6501 52.5465 25.5019 51.9762 25.5019 51.2937C25.5019 50.719 25.6074 50.2363 25.8185 49.8456C26.0295 49.455 26.3169 49.1406 26.6806 48.9027C27.0443 48.6647 27.4574 48.4851 27.9199 48.3638C28.3869 48.2426 28.8763 48.1573 29.3882 48.1079C29.9899 48.045 30.4749 47.9866 30.8431 47.9328C31.2113 47.8744 31.4784 47.7891 31.6446 47.6768C31.8107 47.5646 31.8938 47.3984 31.8938 47.1784V47.138C31.8938 46.7114 31.7591 46.3814 31.4897 46.1479C31.2247 45.9144 30.8475 45.7976 30.3581 45.7976C29.8417 45.7976 29.4309 45.9121 29.1255 46.1411C28.8202 46.3657 28.6181 46.6485 28.5193 46.9898L25.8656 46.7743C26.0003 46.1456 26.2652 45.6023 26.6604 45.1443C27.0555 44.6818 27.5652 44.3271 28.1893 44.0801C28.8179 43.8287 29.5454 43.7029 30.3716 43.7029C30.9463 43.7029 31.4964 43.7703 32.0218 43.905C32.5516 44.0397 33.0208 44.2485 33.4295 44.5314C33.8426 44.8143 34.1681 45.178 34.4061 45.6225C34.6441 46.0626 34.7631 46.5902 34.7631 47.2053V54.1832H32.042V52.7486H31.9611C31.795 53.0719 31.5727 53.357 31.2943 53.604C31.0159 53.8464 30.6814 54.0373 30.2908 54.1765C29.9001 54.3112 29.4488 54.3785 28.9369 54.3785ZM29.7587 52.3983C30.1807 52.3983 30.5534 52.3153 30.8767 52.1491C31.2 51.9785 31.4537 51.7495 31.6378 51.4621C31.8219 51.1747 31.914 50.8492 31.914 50.4855V49.3876C31.8242 49.446 31.7007 49.4999 31.5435 49.5493C31.3909 49.5942 31.218 49.6368 31.0249 49.6772C30.8318 49.7131 30.6388 49.7468 30.4457 49.7783C30.2526 49.8052 30.0775 49.8299 29.9203 49.8523C29.5835 49.9017 29.2894 49.9803 29.038 50.0881C28.7865 50.1959 28.5912 50.3418 28.452 50.5259C28.3128 50.7055 28.2432 50.93 28.2432 51.1994C28.2432 51.5901 28.3846 51.8887 28.6675 52.0952C28.9549 52.2973 29.3186 52.3983 29.7587 52.3983Z" fill="white"/>
<path d="M36.9891 54.1832V43.8376H39.8584V54.1832H36.9891ZM38.4305 42.504C38.0039 42.504 37.6379 42.3626 37.3326 42.0797C37.0318 41.7923 36.8813 41.4488 36.8813 41.0492C36.8813 40.654 37.0318 40.315 37.3326 40.0321C37.6379 39.7448 38.0039 39.6011 38.4305 39.6011C38.8571 39.6011 39.2208 39.7448 39.5216 40.0321C39.827 40.315 39.9796 40.654 39.9796 41.0492C39.9796 41.4488 39.827 41.7923 39.5216 42.0797C39.2208 42.3626 38.8571 42.504 38.4305 42.504Z" fill="white"/>
<path d="M45.0261 40.3891V54.1832H42.1568V40.3891H45.0261Z" fill="white"/>
<path d="M60.3222 46.7877L57.6954 46.9494C57.6505 46.7249 57.554 46.5228 57.4058 46.3432C57.2576 46.1591 57.0623 46.0132 56.8198 45.9054C56.5818 45.7931 56.2967 45.737 55.9644 45.737C55.5199 45.737 55.1449 45.8313 54.8396 46.0199C54.5342 46.204 54.3816 46.451 54.3816 46.7608C54.3816 47.0078 54.4804 47.2166 54.6779 47.3872C54.8755 47.5578 55.2145 47.6948 55.695 47.798L57.5674 48.1752C58.5732 48.3818 59.3231 48.7141 59.817 49.1721C60.311 49.6301 60.5579 50.2318 60.5579 50.9772C60.5579 51.6552 60.3581 52.2501 59.9585 52.762C59.5633 53.2739 59.02 53.6736 58.3285 53.9609C57.6415 54.2438 56.849 54.3853 55.9509 54.3853C54.5814 54.3853 53.4903 54.1001 52.6775 53.5299C51.8693 52.9551 51.3956 52.1738 51.2564 51.186L54.0785 51.0378C54.1638 51.4554 54.3704 51.7742 54.6981 51.9942C55.0259 52.2097 55.4458 52.3175 55.9577 52.3175C56.4606 52.3175 56.8647 52.221 57.17 52.0279C57.4799 51.8303 57.637 51.5766 57.6415 51.2668C57.637 51.0063 57.527 50.7931 57.3115 50.6269C57.0959 50.4563 56.7637 50.3261 56.3146 50.2363L54.523 49.8793C53.5127 49.6772 52.7606 49.327 52.2667 48.8286C51.7772 48.3301 51.5325 47.6948 51.5325 46.9225C51.5325 46.2579 51.7121 45.6854 52.0713 45.2049C52.4351 44.7245 52.9447 44.354 53.6003 44.0936C54.2603 43.8331 55.0327 43.7029 55.9173 43.7029C57.2239 43.7029 58.2522 43.9791 59.0021 44.5314C59.7564 45.0837 60.1965 45.8358 60.3222 46.7877Z" fill="white"/>
<path d="M67.8675 43.8376V45.993H61.6373V43.8376H67.8675ZM63.0517 41.359H65.921V51.0041C65.921 51.269 65.9614 51.4756 66.0422 51.6238C66.1231 51.7674 66.2353 51.8685 66.379 51.9268C66.5272 51.9852 66.6978 52.0144 66.8909 52.0144C67.0256 52.0144 67.1603 52.0032 67.295 51.9807C67.4297 51.9538 67.533 51.9336 67.6048 51.9201L68.0561 54.0552C67.9124 54.1001 67.7104 54.1518 67.4499 54.2101C67.1895 54.273 66.8729 54.3112 66.5002 54.3246C65.8087 54.3516 65.2026 54.2595 64.6817 54.0485C64.1653 53.8375 63.7634 53.5097 63.476 53.0651C63.1887 52.6206 63.0472 52.0593 63.0517 51.3813V41.359Z" fill="white"/>
<path d="M74.2998 54.3853C73.2536 54.3853 72.3488 54.163 71.5855 53.7185C70.8266 53.2694 70.2406 52.6453 69.8275 51.846C69.4144 51.0423 69.2079 50.1105 69.2079 49.0508C69.2079 47.9822 69.4144 47.0482 69.8275 46.2489C70.2406 45.4452 70.8266 44.821 71.5855 44.3765C72.3488 43.9274 73.2536 43.7029 74.2998 43.7029C75.3461 43.7029 76.2486 43.9274 77.0075 44.3765C77.7708 44.821 78.359 45.4452 78.7721 46.2489C79.1852 47.0482 79.3918 47.9822 79.3918 49.0508C79.3918 50.1105 79.1852 51.0423 78.7721 51.846C78.359 52.6453 77.7708 53.2694 77.0075 53.7185C76.2486 54.163 75.3461 54.3853 74.2998 54.3853ZM74.3133 52.1626C74.7893 52.1626 75.1867 52.0279 75.5055 51.7585C75.8243 51.4846 76.0645 51.1119 76.2262 50.6404C76.3923 50.1689 76.4754 49.6323 76.4754 49.0306C76.4754 48.4289 76.3923 47.8923 76.2262 47.4209C76.0645 46.9494 75.8243 46.5767 75.5055 46.3028C75.1867 46.0289 74.7893 45.8919 74.3133 45.8919C73.8328 45.8919 73.4287 46.0289 73.1009 46.3028C72.7776 46.5767 72.5329 46.9494 72.3668 47.4209C72.2051 47.8923 72.1243 48.4289 72.1243 49.0306C72.1243 49.6323 72.2051 50.1689 72.3668 50.6404C72.5329 51.1119 72.7776 51.4846 73.1009 51.7585C73.4287 52.0279 73.8328 52.1626 74.3133 52.1626Z" fill="white"/>
<path d="M81.2575 54.1832V43.8376H84.0392V45.6427H84.147C84.3356 45.0006 84.6521 44.5157 85.0967 44.1879C85.5412 43.8556 86.0531 43.6895 86.6323 43.6895C86.776 43.6895 86.9309 43.6984 87.0971 43.7164C87.2632 43.7344 87.4092 43.7591 87.5349 43.7905V46.3365C87.4002 46.2961 87.2138 46.2601 86.9758 46.2287C86.7379 46.1973 86.5201 46.1816 86.3225 46.1816C85.9004 46.1816 85.5232 46.2736 85.191 46.4577C84.8632 46.6373 84.6027 46.8888 84.4097 47.2121C84.2211 47.5354 84.1268 47.9081 84.1268 48.3301V54.1832H81.2575Z" fill="white"/>
<path d="M93.2515 54.3853C92.1874 54.3853 91.2713 54.1697 90.5035 53.7387C89.7402 53.3031 89.1519 52.6879 88.7388 51.8932C88.3257 51.0939 88.1192 50.1487 88.1192 49.0576C88.1192 47.9934 88.3257 47.0594 88.7388 46.2556C89.1519 45.4519 89.7334 44.8255 90.4833 44.3765C91.2377 43.9274 92.1222 43.7029 93.137 43.7029C93.8196 43.7029 94.4549 43.8129 95.0432 44.033C95.6359 44.2485 96.1523 44.574 96.5923 45.0096C97.0368 45.4452 97.3826 45.993 97.6296 46.653C97.8765 47.3086 98 48.0764 98 48.9565V49.7446H89.2642V47.9664H95.2991C95.2991 47.5533 95.2093 47.1874 95.0297 46.8686C94.8501 46.5498 94.6009 46.3005 94.2821 46.1209C93.9678 45.9368 93.6018 45.8448 93.1842 45.8448C92.7486 45.8448 92.3625 45.9458 92.0257 46.1479C91.6934 46.3454 91.433 46.6126 91.2444 46.9494C91.0558 47.2817 90.9593 47.6521 90.9548 48.0607V49.7513C90.9548 50.2632 91.0491 50.7055 91.2377 51.0782C91.4307 51.4509 91.7024 51.7383 92.0526 51.9403C92.4029 52.1424 92.8182 52.2434 93.2987 52.2434C93.6175 52.2434 93.9094 52.1985 94.1743 52.1087C94.4392 52.0189 94.666 51.8842 94.8546 51.7046C95.0432 51.525 95.1869 51.3049 95.2856 51.0445L97.9394 51.2196C97.8047 51.8572 97.5285 52.414 97.1109 52.89C96.6978 53.3615 96.1635 53.7297 95.5079 53.9946C94.8568 54.255 94.1047 54.3853 93.2515 54.3853Z" fill="white"/>
<path d="M63.8975 20.9936L51.2533 12.5615C49.7163 11.5365 47.7118 11.544 46.1826 12.5805L33.7551 21.0035C34.3676 22.8144 35.2975 24.4792 36.4784 25.9315L46.1826 19.3543C47.7118 18.3178 49.7163 18.3103 51.2533 19.3353L61.1616 25.9429C62.3491 24.4853 63.2834 22.8132 63.8975 20.9936Z" fill="url(#paint0_linear_68_2)"/>
<path d="M56.0797 30.0616L51.2533 26.843C49.7163 25.818 47.7118 25.8256 46.1826 26.862L41.5084 30.0301C43.6986 31.1668 46.1866 31.809 48.8246 31.809C51.4381 31.809 53.9044 31.1786 56.0797 30.0616Z" fill="url(#paint1_linear_68_2)"/>
<path d="M64.6117 13.9622L51.2533 5.05374C49.7163 4.02878 47.7118 4.0363 46.1826 5.07276L33.0349 13.9839C33.9832 6.10573 40.6909 0 48.8246 0C56.9509 0 63.6538 6.09454 64.6117 13.9622Z" fill="url(#paint2_linear_68_2)"/>
<defs>
<linearGradient id="paint0_linear_68_2" x1="48.8233" y1="0" x2="48.8233" y2="31.809" gradientUnits="userSpaceOnUse">
<stop stop-color="#BC1A40"/>
<stop offset="1" stop-color="#FF6A8D"/>
</linearGradient>
<linearGradient id="paint1_linear_68_2" x1="48.8233" y1="0" x2="48.8233" y2="31.809" gradientUnits="userSpaceOnUse">
<stop stop-color="#BC1A40"/>
<stop offset="1" stop-color="#FF6A8D"/>
</linearGradient>
<linearGradient id="paint2_linear_68_2" x1="48.8233" y1="0" x2="48.8233" y2="31.809" gradientUnits="userSpaceOnUse">
<stop stop-color="#BC1A40"/>
<stop offset="1" stop-color="#FF6A8D"/>
</linearGradient>
</defs>
</svg>
